<svg width="32" height="32" viewBox="0 0 32 32" fill="none" xmlns="http://www.w3.org/2000/svg">
<g clip-path="url(#clip0_89_2)">
<path d="M16.0032 8.50342C12.049 8.50342 8.83228 11.7202 8.83228 15.6732C8.83228 19.6268 12.049 22.8441 16.0032 22.8441C19.9579 22.8441 23.1741 19.6268 23.1741 15.6732C23.1741 11.7207 19.9579 8.50342 16.0032 8.50342Z" fill="#FAFF00"/>
<path d="M5.14076 15.6734C5.14076 15.4054 4.9251 15.1887 4.65933 15.1887H0.479212C0.214583 15.1887 0 15.4054 0 15.6734C0 15.9391 0.215119 16.1559 0.479212 16.1559H4.6588C4.92457 16.1564 5.14076 15.9396 5.14076 15.6734Z" fill="#FAFF00"/>
<path d="M8.06348 7.50037C8.24262 7.67951 8.56775 7.6763 8.74582 7.50037C8.93206 7.31305 8.93314 7.00481 8.74582 6.81749L6.0714 4.14528C5.97828 4.05216 5.85849 4.00098 5.73107 4.00098C5.60364 4.00098 5.48164 4.05216 5.39073 4.14421C5.20234 4.33046 5.20449 4.63649 5.39073 4.82494L8.06348 7.50037Z" fill="#FAFF00"/>
<path d="M8.66304 23.7012C8.53287 23.7012 8.41254 23.7524 8.32049 23.8449L5.64614 26.5182C5.45715 26.7066 5.45715 27.016 5.64614 27.2055C5.88028 27.4358 6.09487 27.438 6.3339 27.2011L9.00611 24.5278C9.19236 24.3405 9.19236 24.0323 9.0039 23.8438C8.91359 23.7518 8.79106 23.7012 8.66304 23.7012Z" fill="#FAFF00"/>
<path d="M31.5196 15.1885H27.3406C27.0753 15.1885 26.8591 15.4052 26.8591 15.6731C26.8591 15.9389 27.0748 16.1556 27.3406 16.1556H31.5196C31.7854 16.1556 31.9999 15.9389 31.9999 15.6731C31.9999 15.4057 31.7854 15.1885 31.5196 15.1885Z" fill="#FAFF00"/>
<path d="M23.9397 7.49713L26.6108 4.82385C26.7976 4.63653 26.7987 4.3305 26.6119 4.14587C26.5188 4.05167 26.3968 4.00049 26.2694 4.00049C26.1414 4.00049 26.0194 4.05167 25.9284 4.14372L23.253 6.81808C23.0652 7.00432 23.0662 7.31256 23.2552 7.50095C23.4305 7.6752 23.754 7.68177 23.9397 7.49713Z" fill="#FAFF00"/>
<path d="M23.679 23.8455C23.5864 23.7519 23.4661 23.7007 23.337 23.7007C23.2095 23.7007 23.0886 23.7519 22.9966 23.8445C22.8055 24.0367 22.8055 24.3362 22.9966 24.5273L25.6688 27.205C25.8213 27.3558 26.0636 27.4903 26.3588 27.1995C26.5418 27.0155 26.5418 26.7062 26.3534 26.5177L23.679 23.8455Z" fill="#FAFF00"/>
<path d="M15.7081 26.918C15.4499 26.9202 15.2327 27.1358 15.2327 27.401V31.189C15.2327 31.317 15.2828 31.4362 15.3715 31.5239C15.4647 31.6186 15.5845 31.6682 15.7162 31.6715C15.982 31.6671 16.1987 31.4504 16.2003 31.1846L16.1993 27.401C16.1993 27.1358 15.9793 26.9202 15.7081 26.918Z" fill="#FAFF00"/>
<path d="M15.7167 5.07862C15.9825 5.07426 16.1992 4.85753 16.2008 4.59123L16.1998 0.811936C16.1998 0.547307 15.9797 0.331652 15.7085 0.328369C15.4504 0.331652 15.2332 0.547307 15.2332 0.811936V4.59612C15.2332 4.75952 15.3094 4.86892 15.372 4.93103C15.4651 5.02582 15.5844 5.07533 15.7167 5.07862Z" fill="#FAFF00"/>
</g>
<defs>
<clipPath id="clip0_89_2">
<rect width="32" height="32" fill="white"/>
</clipPath>
</defs>
</svg>
